<mxfile host="Electron" agent="Mozilla/5.0 (Windows NT 10.0; Win64; x64) AppleWebKit/537.36 (KHTML, like Gecko) draw.io/26.2.2 Chrome/134.0.6998.178 Electron/35.1.2 Safari/537.36" version="26.2.2">
  <diagram name="Page-1" id="oKpc1l_Igcs4GMacKgKO">
    <mxGraphModel dx="1044" dy="634" grid="1" gridSize="10" guides="1" tooltips="1" connect="1" arrows="1" fold="1" page="1" pageScale="1" pageWidth="850" pageHeight="1100" math="0" shadow="0">
      <root>
        <mxCell id="0" />
        <mxCell id="1" parent="0" />
        <mxCell id="VA4gKk7P2Ic-5W_0SB8y-11" value="&lt;div&gt;hardware_abstraction_layer&lt;/div&gt;&lt;div&gt;&lt;hr&gt;&lt;br&gt;&lt;/div&gt;&lt;div&gt;&lt;br&gt;&lt;/div&gt;&lt;div&gt;&lt;br&gt;&lt;/div&gt;&lt;div&gt;&lt;br&gt;&lt;/div&gt;" style="shape=folder;fontStyle=1;tabWidth=80;tabHeight=30;tabPosition=left;html=1;boundedLbl=1;whiteSpace=wrap;" parent="1" vertex="1">
          <mxGeometry x="80" y="80" width="970" height="160" as="geometry" />
        </mxCell>
        <mxCell id="VA4gKk7P2Ic-5W_0SB8y-12" value="&lt;b&gt;adc&lt;/b&gt;" style="rounded=0;whiteSpace=wrap;html=1;" parent="1" vertex="1">
          <mxGeometry x="110" y="170" width="50" height="40" as="geometry" />
        </mxCell>
        <mxCell id="VA4gKk7P2Ic-5W_0SB8y-13" value="&lt;b&gt;clock&lt;/b&gt;" style="rounded=0;whiteSpace=wrap;html=1;" parent="1" vertex="1">
          <mxGeometry x="180" y="170" width="60" height="40" as="geometry" />
        </mxCell>
        <mxCell id="VA4gKk7P2Ic-5W_0SB8y-14" value="&lt;b&gt;external_interrupt_controller&lt;/b&gt;" style="rounded=0;whiteSpace=wrap;html=1;" parent="1" vertex="1">
          <mxGeometry x="260" y="170" width="180" height="40" as="geometry" />
        </mxCell>
        <mxCell id="VA4gKk7P2Ic-5W_0SB8y-15" value="&lt;b&gt;internal_interrupt_controller&lt;/b&gt;" style="rounded=0;whiteSpace=wrap;html=1;" parent="1" vertex="1">
          <mxGeometry x="460" y="170" width="185" height="40" as="geometry" />
        </mxCell>
        <mxCell id="VA4gKk7P2Ic-5W_0SB8y-16" value="&lt;b&gt;gpio&lt;/b&gt;" style="rounded=0;whiteSpace=wrap;html=1;" parent="1" vertex="1">
          <mxGeometry x="670" y="170" width="50" height="40" as="geometry" />
        </mxCell>
        <mxCell id="VA4gKk7P2Ic-5W_0SB8y-17" value="&lt;b&gt;pwm&lt;/b&gt;" style="rounded=0;whiteSpace=wrap;html=1;" parent="1" vertex="1">
          <mxGeometry x="750" y="170" width="60" height="40" as="geometry" />
        </mxCell>
        <mxCell id="VA4gKk7P2Ic-5W_0SB8y-18" value="&lt;b&gt;usart&lt;/b&gt;" style="rounded=0;whiteSpace=wrap;html=1;" parent="1" vertex="1">
          <mxGeometry x="950" y="170" width="70" height="40" as="geometry" />
        </mxCell>
        <mxCell id="VA4gKk7P2Ic-5W_0SB8y-19" value="&lt;b&gt;timer_counter&lt;/b&gt;" style="rounded=0;whiteSpace=wrap;html=1;" parent="1" vertex="1">
          <mxGeometry x="830" y="170" width="100" height="40" as="geometry" />
        </mxCell>
        <mxCell id="VA4gKk7P2Ic-5W_0SB8y-20" style="edgeStyle=orthogonalEdgeStyle;rounded=0;orthogonalLoop=1;jettySize=auto;html=1;exitX=0.5;exitY=1;exitDx=0;exitDy=0;" parent="1" source="VA4gKk7P2Ic-5W_0SB8y-13" target="VA4gKk7P2Ic-5W_0SB8y-13" edge="1">
          <mxGeometry relative="1" as="geometry" />
        </mxCell>
        <mxCell id="qFmJLVRTqTorrICbb9q3-8" value="adc" style="swimlane;fontStyle=1;align=center;verticalAlign=top;childLayout=stackLayout;horizontal=1;startSize=26;horizontalStack=0;resizeParent=1;resizeParentMax=0;resizeLast=0;collapsible=1;marginBottom=0;whiteSpace=wrap;html=1;" parent="1" vertex="1">
          <mxGeometry x="80" y="270" width="310" height="130" as="geometry" />
        </mxCell>
        <mxCell id="qFmJLVRTqTorrICbb9q3-10" value="" style="line;strokeWidth=1;fillColor=none;align=left;verticalAlign=middle;spacingTop=-1;spacingLeft=3;spacingRight=3;rotatable=0;labelPosition=right;points=[];portConstraint=eastwest;strokeColor=inherit;" parent="qFmJLVRTqTorrICbb9q3-8" vertex="1">
          <mxGeometry y="26" width="310" height="8" as="geometry" />
        </mxCell>
        <mxCell id="qFmJLVRTqTorrICbb9q3-11" value="+ initAdc(void): void&lt;div&gt;+ deinitAdc(void): void&lt;br&gt;&lt;div&gt;+ enableAdcChannel(uint32_t adcNumber): void&lt;/div&gt;&lt;div&gt;+ disableAdcChannel(uint32_t adcNumber): void&lt;/div&gt;&lt;div&gt;+ readAdcChannel(uint32_t adcNumber): uint32_t&lt;/div&gt;&lt;/div&gt;" style="text;strokeColor=none;fillColor=none;align=left;verticalAlign=top;spacingLeft=4;spacingRight=4;overflow=hidden;rotatable=0;points=[[0,0.5],[1,0.5]];portConstraint=eastwest;whiteSpace=wrap;html=1;" parent="qFmJLVRTqTorrICbb9q3-8" vertex="1">
          <mxGeometry y="34" width="310" height="96" as="geometry" />
        </mxCell>
        <mxCell id="qFmJLVRTqTorrICbb9q3-12" value="clock" style="swimlane;fontStyle=1;align=center;verticalAlign=top;childLayout=stackLayout;horizontal=1;startSize=26;horizontalStack=0;resizeParent=1;resizeParentMax=0;resizeLast=0;collapsible=1;marginBottom=0;whiteSpace=wrap;html=1;" parent="1" vertex="1">
          <mxGeometry x="410" y="270" width="210" height="110" as="geometry" />
        </mxCell>
        <mxCell id="qFmJLVRTqTorrICbb9q3-13" value="" style="line;strokeWidth=1;fillColor=none;align=left;verticalAlign=middle;spacingTop=-1;spacingLeft=3;spacingRight=3;rotatable=0;labelPosition=right;points=[];portConstraint=eastwest;strokeColor=inherit;" parent="qFmJLVRTqTorrICbb9q3-12" vertex="1">
          <mxGeometry y="26" width="210" height="8" as="geometry" />
        </mxCell>
        <mxCell id="qFmJLVRTqTorrICbb9q3-14" value="+ initClock(void): void&lt;div&gt;+ deinitClock(void): void&lt;br&gt;&lt;div&gt;+ delayMs(uint32_t delayTime): void&lt;/div&gt;&lt;/div&gt;&lt;div&gt;+ delayUs(uint32_t delayTime): void&lt;/div&gt;" style="text;strokeColor=none;fillColor=none;align=left;verticalAlign=top;spacingLeft=4;spacingRight=4;overflow=hidden;rotatable=0;points=[[0,0.5],[1,0.5]];portConstraint=eastwest;whiteSpace=wrap;html=1;" parent="qFmJLVRTqTorrICbb9q3-12" vertex="1">
          <mxGeometry y="34" width="210" height="76" as="geometry" />
        </mxCell>
        <mxCell id="qFmJLVRTqTorrICbb9q3-15" value="external_interrupt_controller" style="swimlane;fontStyle=1;align=center;verticalAlign=top;childLayout=stackLayout;horizontal=1;startSize=26;horizontalStack=0;resizeParent=1;resizeParentMax=0;resizeLast=0;collapsible=1;marginBottom=0;whiteSpace=wrap;html=1;" parent="1" vertex="1">
          <mxGeometry x="645" y="270" width="260" height="90" as="geometry" />
        </mxCell>
        <mxCell id="qFmJLVRTqTorrICbb9q3-16" value="" style="line;strokeWidth=1;fillColor=none;align=left;verticalAlign=middle;spacingTop=-1;spacingLeft=3;spacingRight=3;rotatable=0;labelPosition=right;points=[];portConstraint=eastwest;strokeColor=inherit;" parent="qFmJLVRTqTorrICbb9q3-15" vertex="1">
          <mxGeometry y="26" width="260" height="8" as="geometry" />
        </mxCell>
        <mxCell id="qFmJLVRTqTorrICbb9q3-17" value="+ initExternalInterrupt(void): void&lt;div&gt;+ deinitExternalInterrupt(void): void&lt;/div&gt;&lt;div&gt;+ isExternalInterruptInitialized(void): bool&lt;/div&gt;" style="text;strokeColor=none;fillColor=none;align=left;verticalAlign=top;spacingLeft=4;spacingRight=4;overflow=hidden;rotatable=0;points=[[0,0.5],[1,0.5]];portConstraint=eastwest;whiteSpace=wrap;html=1;" parent="qFmJLVRTqTorrICbb9q3-15" vertex="1">
          <mxGeometry y="34" width="260" height="56" as="geometry" />
        </mxCell>
        <mxCell id="qFmJLVRTqTorrICbb9q3-18" value="internal_interrupt_controller" style="swimlane;fontStyle=1;align=center;verticalAlign=top;childLayout=stackLayout;horizontal=1;startSize=26;horizontalStack=0;resizeParent=1;resizeParentMax=0;resizeLast=0;collapsible=1;marginBottom=0;whiteSpace=wrap;html=1;" parent="1" vertex="1">
          <mxGeometry x="80" y="420" width="270" height="110" as="geometry" />
        </mxCell>
        <mxCell id="qFmJLVRTqTorrICbb9q3-19" value="" style="line;strokeWidth=1;fillColor=none;align=left;verticalAlign=middle;spacingTop=-1;spacingLeft=3;spacingRight=3;rotatable=0;labelPosition=right;points=[];portConstraint=eastwest;strokeColor=inherit;" parent="qFmJLVRTqTorrICbb9q3-18" vertex="1">
          <mxGeometry y="26" width="270" height="8" as="geometry" />
        </mxCell>
        <mxCell id="qFmJLVRTqTorrICbb9q3-20" value="+ initInternalInterrupt(void): void&lt;div&gt;+ deinitInternalInterrupt(void): void&lt;br&gt;&lt;div&gt;+ enableGlobalInterrupt(void): void&lt;/div&gt;&lt;/div&gt;&lt;div&gt;+&amp;nbsp;&lt;span style=&quot;background-color: transparent; color: light-dark(rgb(0, 0, 0), rgb(255, 255, 255));&quot;&gt;disableGlobalInterrupt(void): void&lt;/span&gt;&lt;/div&gt;" style="text;strokeColor=none;fillColor=none;align=left;verticalAlign=top;spacingLeft=4;spacingRight=4;overflow=hidden;rotatable=0;points=[[0,0.5],[1,0.5]];portConstraint=eastwest;whiteSpace=wrap;html=1;" parent="qFmJLVRTqTorrICbb9q3-18" vertex="1">
          <mxGeometry y="34" width="270" height="76" as="geometry" />
        </mxCell>
        <mxCell id="qFmJLVRTqTorrICbb9q3-21" value="gpio" style="swimlane;fontStyle=1;align=center;verticalAlign=top;childLayout=stackLayout;horizontal=1;startSize=26;horizontalStack=0;resizeParent=1;resizeParentMax=0;resizeLast=0;collapsible=1;marginBottom=0;whiteSpace=wrap;html=1;" parent="1" vertex="1">
          <mxGeometry x="370" y="420" width="320" height="120" as="geometry">
            <mxRectangle x="370" y="420" width="60" height="30" as="alternateBounds" />
          </mxGeometry>
        </mxCell>
        <mxCell id="qFmJLVRTqTorrICbb9q3-22" value="" style="line;strokeWidth=1;fillColor=none;align=left;verticalAlign=middle;spacingTop=-1;spacingLeft=3;spacingRight=3;rotatable=0;labelPosition=right;points=[];portConstraint=eastwest;strokeColor=inherit;" parent="qFmJLVRTqTorrICbb9q3-21" vertex="1">
          <mxGeometry y="26" width="320" height="8" as="geometry" />
        </mxCell>
        <mxCell id="qFmJLVRTqTorrICbb9q3-23" value="+ initGpio(void): void&lt;div&gt;+ deinitGpio(void): void&lt;br&gt;&lt;div&gt;+ readGpioPin(uint32_t gpioNumber): uint32_t&lt;/div&gt;&lt;/div&gt;&lt;div&gt;+&amp;nbsp;&lt;span style=&quot;background-color: transparent; color: light-dark(rgb(0, 0, 0), rgb(255, 255, 255));&quot;&gt;writeGpioPin(&lt;/span&gt;uint32_t gpioNumber&lt;span style=&quot;background-color: transparent; color: light-dark(rgb(0, 0, 0), rgb(255, 255, 255));&quot;&gt;): void&lt;/span&gt;&lt;/div&gt;&lt;div&gt;&lt;span style=&quot;background-color: transparent; color: light-dark(rgb(0, 0, 0), rgb(255, 255, 255));&quot;&gt;+ toggleGpioPin(uint32_t gpioNumber): void&lt;/span&gt;&lt;/div&gt;" style="text;strokeColor=none;fillColor=none;align=left;verticalAlign=top;spacingLeft=4;spacingRight=4;overflow=hidden;rotatable=0;points=[[0,0.5],[1,0.5]];portConstraint=eastwest;whiteSpace=wrap;html=1;" parent="qFmJLVRTqTorrICbb9q3-21" vertex="1">
          <mxGeometry y="34" width="320" height="86" as="geometry" />
        </mxCell>
        <mxCell id="qFmJLVRTqTorrICbb9q3-24" value="pwm" style="swimlane;fontStyle=1;align=center;verticalAlign=top;childLayout=stackLayout;horizontal=1;startSize=26;horizontalStack=0;resizeParent=1;resizeParentMax=0;resizeLast=0;collapsible=1;marginBottom=0;whiteSpace=wrap;html=1;" parent="1" vertex="1">
          <mxGeometry x="710" y="420" width="400" height="90" as="geometry" />
        </mxCell>
        <mxCell id="qFmJLVRTqTorrICbb9q3-25" value="" style="line;strokeWidth=1;fillColor=none;align=left;verticalAlign=middle;spacingTop=-1;spacingLeft=3;spacingRight=3;rotatable=0;labelPosition=right;points=[];portConstraint=eastwest;strokeColor=inherit;" parent="qFmJLVRTqTorrICbb9q3-24" vertex="1">
          <mxGeometry y="26" width="400" height="8" as="geometry" />
        </mxCell>
        <mxCell id="qFmJLVRTqTorrICbb9q3-26" value="+ initPwm(void): void&lt;div&gt;+ deinitPwm(void): void&lt;br&gt;&lt;div&gt;+ setDutyCyclePercent(uint32_t pwmNumber, uint32_t dutyCycle): void&lt;/div&gt;&lt;/div&gt;" style="text;strokeColor=none;fillColor=none;align=left;verticalAlign=top;spacingLeft=4;spacingRight=4;overflow=hidden;rotatable=0;points=[[0,0.5],[1,0.5]];portConstraint=eastwest;whiteSpace=wrap;html=1;" parent="qFmJLVRTqTorrICbb9q3-24" vertex="1">
          <mxGeometry y="34" width="400" height="56" as="geometry" />
        </mxCell>
        <mxCell id="qFmJLVRTqTorrICbb9q3-27" value="timer_counter" style="swimlane;fontStyle=1;align=center;verticalAlign=top;childLayout=stackLayout;horizontal=1;startSize=26;horizontalStack=0;resizeParent=1;resizeParentMax=0;resizeLast=0;collapsible=1;marginBottom=0;whiteSpace=wrap;html=1;" parent="1" vertex="1">
          <mxGeometry x="80" y="550" width="230" height="90" as="geometry" />
        </mxCell>
        <mxCell id="qFmJLVRTqTorrICbb9q3-28" value="" style="line;strokeWidth=1;fillColor=none;align=left;verticalAlign=middle;spacingTop=-1;spacingLeft=3;spacingRight=3;rotatable=0;labelPosition=right;points=[];portConstraint=eastwest;strokeColor=inherit;" parent="qFmJLVRTqTorrICbb9q3-27" vertex="1">
          <mxGeometry y="26" width="230" height="8" as="geometry" />
        </mxCell>
        <mxCell id="qFmJLVRTqTorrICbb9q3-29" value="+ initTimerCounter(void): void&lt;div&gt;+ deinitTimerCounter(void): void&lt;/div&gt;&lt;div&gt;+ getTimerCounterCount(void): uint32_t&lt;/div&gt;" style="text;strokeColor=none;fillColor=none;align=left;verticalAlign=top;spacingLeft=4;spacingRight=4;overflow=hidden;rotatable=0;points=[[0,0.5],[1,0.5]];portConstraint=eastwest;whiteSpace=wrap;html=1;" parent="qFmJLVRTqTorrICbb9q3-27" vertex="1">
          <mxGeometry y="34" width="230" height="56" as="geometry" />
        </mxCell>
        <mxCell id="qFmJLVRTqTorrICbb9q3-30" value="usart" style="swimlane;fontStyle=1;align=center;verticalAlign=top;childLayout=stackLayout;horizontal=1;startSize=26;horizontalStack=0;resizeParent=1;resizeParentMax=0;resizeLast=0;collapsible=1;marginBottom=0;whiteSpace=wrap;html=1;" parent="1" vertex="1">
          <mxGeometry x="330" y="550" width="230" height="80" as="geometry" />
        </mxCell>
        <mxCell id="qFmJLVRTqTorrICbb9q3-31" value="" style="line;strokeWidth=1;fillColor=none;align=left;verticalAlign=middle;spacingTop=-1;spacingLeft=3;spacingRight=3;rotatable=0;labelPosition=right;points=[];portConstraint=eastwest;strokeColor=inherit;" parent="qFmJLVRTqTorrICbb9q3-30" vertex="1">
          <mxGeometry y="26" width="230" height="8" as="geometry" />
        </mxCell>
        <mxCell id="qFmJLVRTqTorrICbb9q3-32" value="+ initUsart(void): void&lt;div&gt;+ deinitUsart(void): void&lt;/div&gt;" style="text;strokeColor=none;fillColor=none;align=left;verticalAlign=top;spacingLeft=4;spacingRight=4;overflow=hidden;rotatable=0;points=[[0,0.5],[1,0.5]];portConstraint=eastwest;whiteSpace=wrap;html=1;" parent="qFmJLVRTqTorrICbb9q3-30" vertex="1">
          <mxGeometry y="34" width="230" height="46" as="geometry" />
        </mxCell>
      </root>
    </mxGraphModel>
  </diagram>
</mxfile>
